<mxfile host="app.diagrams.net" agent="Mozilla/5.0 (Windows NT 10.0; Win64; x64) AppleWebKit/537.36 (KHTML, like Gecko) Chrome/133.0.0.0 Safari/537.36" version="26.0.16">
  <diagram name="Page-1" id="y1VPcpp46RtRkmRhEWHq">
    <mxGraphModel dx="1050" dy="1665" grid="1" gridSize="10" guides="1" tooltips="1" connect="1" arrows="1" fold="1" page="1" pageScale="1" pageWidth="850" pageHeight="1100" math="0" shadow="0">
      <root>
        <mxCell id="0" />
        <mxCell id="1" parent="0" />
        <UserObject label="+-------------------------------------+&#xa;                |       User Runs Crawler           |&#xa;                +-------------------------------------+&#xa;                                |&#xa;                                v&#xa;                +-------------------------------------+&#xa;                | Read domains from CLI arguments    |&#xa;                +-------------------------------------+&#xa;                                |&#xa;                                v&#xa;                +-------------------------------------+&#xa;                |    Start concurrent crawling       |&#xa;                +-------------------------------------+&#xa;                                |&#xa;        +---------------------+-----------------------+&#xa;        |                     |                       |&#xa;        v                     v                       v&#xa;+------------------+  +------------------+   +------------------+&#xa;| Crawl Domain 1   |  | Crawl Domain 2   |   | Crawl Domain 3   |&#xa;+------------------+  +------------------+   +------------------+&#xa;        |                     |                       |&#xa;        v                     v                       v&#xa;+-----------------+  +-----------------+   +-----------------+&#xa;| Extract URLs    |  | Extract URLs    |   | Extract URLs    |&#xa;+-----------------+  +-----------------+   +-----------------+&#xa;        |                     |                       |&#xa;        v                     v                       v&#xa;+---------------------------------------------------------+&#xa;| Store unique URLs per domain (Prevent duplicates)      |&#xa;+---------------------------------------------------------+&#xa;                                |&#xa;                                v&#xa;+--------------------------------------------+&#xa;| Save results as JSON (products.json)       |&#xa;+--------------------------------------------+" link="+-------------------------------------+&#xa;                |       User Runs Crawler           |&#xa;                +-------------------------------------+&#xa;                                |&#xa;                                v&#xa;                +-------------------------------------+&#xa;                | Read domains from CLI arguments    |&#xa;                +-------------------------------------+&#xa;                                |&#xa;                                v&#xa;                +-------------------------------------+&#xa;                |    Start concurrent crawling       |&#xa;                +-------------------------------------+&#xa;                                |&#xa;        +---------------------+-----------------------+&#xa;        |                     |                       |&#xa;        v                     v                       v&#xa;+------------------+  +------------------+   +------------------+&#xa;| Crawl Domain 1   |  | Crawl Domain 2   |   | Crawl Domain 3   |&#xa;+------------------+  +------------------+   +------------------+&#xa;        |                     |                       |&#xa;        v                     v                       v&#xa;+-----------------+  +-----------------+   +-----------------+&#xa;| Extract URLs    |  | Extract URLs    |   | Extract URLs    |&#xa;+-----------------+  +-----------------+   +-----------------+&#xa;        |                     |                       |&#xa;        v                     v                       v&#xa;+---------------------------------------------------------+&#xa;| Store unique URLs per domain (Prevent duplicates)      |&#xa;+---------------------------------------------------------+&#xa;                                |&#xa;                                v&#xa;+--------------------------------------------+&#xa;| Save results as JSON (products.json)       |&#xa;+--------------------------------------------+" id="a_0bkQVGOjIdM8ddbx58-12">
          <mxCell style="text;whiteSpace=wrap;" vertex="1" parent="1">
            <mxGeometry x="180" y="-370" width="650" height="530" as="geometry" />
          </mxCell>
        </UserObject>
      </root>
    </mxGraphModel>
  </diagram>
</mxfile>
